<mxfile host="app.diagrams.net" modified="2023-09-16T17:40:26.203Z" agent="Mozilla/5.0 (Windows NT 10.0; Win64; x64) AppleWebKit/537.36 (KHTML, like Gecko) Chrome/116.0.0.0 Safari/537.36" etag="QL_04qeGnn5Ax8-hT-PF" version="21.7.5" type="device">
  <diagram name="Page-1" id="CY_EAT2HBuPFVBq4eShE">
    <mxGraphModel dx="1050" dy="534" grid="1" gridSize="10" guides="1" tooltips="1" connect="1" arrows="1" fold="1" page="1" pageScale="1" pageWidth="850" pageHeight="1100" math="0" shadow="0">
      <root>
        <mxCell id="0" />
        <mxCell id="1" parent="0" />
        <mxCell id="w8QxKclsJvKgP-PQZt70-16" value="Notifies" style="edgeStyle=orthogonalEdgeStyle;rounded=0;orthogonalLoop=1;jettySize=auto;html=1;exitX=0;exitY=0.75;exitDx=0;exitDy=0;entryX=1;entryY=0.75;entryDx=0;entryDy=0;" parent="1" source="CrHNpw65vWsv0qFxheBZ-1" target="w8QxKclsJvKgP-PQZt70-2" edge="1">
          <mxGeometry relative="1" as="geometry" />
        </mxCell>
        <mxCell id="w8QxKclsJvKgP-PQZt70-17" value="Uploads&lt;br&gt;Data" style="edgeStyle=orthogonalEdgeStyle;rounded=0;orthogonalLoop=1;jettySize=auto;html=1;exitX=1;exitY=0.25;exitDx=0;exitDy=0;entryX=0;entryY=0;entryDx=0;entryDy=27.5;entryPerimeter=0;" parent="1" source="CrHNpw65vWsv0qFxheBZ-1" target="w8QxKclsJvKgP-PQZt70-4" edge="1">
          <mxGeometry relative="1" as="geometry" />
        </mxCell>
        <mxCell id="CrHNpw65vWsv0qFxheBZ-1" value="Seek and Hide Mobile Application 1" style="swimlane;whiteSpace=wrap;html=1;startSize=40;fillColor=#FFFFFF;" parent="1" vertex="1">
          <mxGeometry x="180" y="330" width="120" height="80" as="geometry" />
        </mxCell>
        <mxCell id="w8QxKclsJvKgP-PQZt70-1" value="&lt;p style=&quot;line-height:1.38;margin-top:0pt;margin-bottom:0pt;&quot; dir=&quot;ltr&quot;&gt;&lt;/p&gt;&lt;p style=&quot;line-height:1.38;margin-top:0pt;margin-bottom:0pt;&quot; dir=&quot;ltr&quot;&gt;&lt;/p&gt;&lt;div&gt;&lt;/div&gt;&lt;span style=&quot;font-size: 12pt; font-family: Arial, sans-serif; background-color: transparent; font-variant-numeric: normal; font-variant-east-asian: normal; font-variant-alternates: normal; vertical-align: baseline;&quot;&gt;&lt;div style=&quot;text-align: left;&quot;&gt;&lt;span style=&quot;background-color: transparent; font-size: 12pt;&quot;&gt;Project Title: Seek and Hide&lt;/span&gt;&lt;/div&gt;&lt;div style=&quot;text-align: left;&quot;&gt;&lt;span style=&quot;background-color: transparent; font-size: 12pt;&quot;&gt;Goal Statement: Social app where you get notified if a user is nearby and you try to identify who it is. The user uploads either a picture of themselves or a description of what they are wearing and other users will be notified if they are in close enough proximity. The primary purpose is to connect people virtually and physically.&lt;/span&gt;&lt;/div&gt;&lt;/span&gt;&lt;span id=&quot;docs-internal-guid-9b8488f0-7fff-7d0e-f9cc-1bc883892b03&quot;&gt;&lt;div style=&quot;text-align: left;&quot;&gt;&lt;/div&gt;&lt;/span&gt;" style="rounded=0;whiteSpace=wrap;html=1;" parent="1" vertex="1">
          <mxGeometry width="850" height="120" as="geometry" />
        </mxCell>
        <mxCell id="w8QxKclsJvKgP-PQZt70-15" value="Uses" style="edgeStyle=orthogonalEdgeStyle;rounded=0;orthogonalLoop=1;jettySize=auto;html=1;exitX=1;exitY=0.25;exitDx=0;exitDy=0;entryX=0;entryY=0.25;entryDx=0;entryDy=0;" parent="1" source="w8QxKclsJvKgP-PQZt70-2" target="CrHNpw65vWsv0qFxheBZ-1" edge="1">
          <mxGeometry relative="1" as="geometry" />
        </mxCell>
        <mxCell id="w8QxKclsJvKgP-PQZt70-2" value="&lt;b&gt;User 1&lt;/b&gt;" style="rounded=0;whiteSpace=wrap;html=1;" parent="1" vertex="1">
          <mxGeometry x="40" y="340" width="80" height="60" as="geometry" />
        </mxCell>
        <mxCell id="w8QxKclsJvKgP-PQZt70-19" value="Connects&lt;br&gt;Users" style="edgeStyle=orthogonalEdgeStyle;rounded=0;orthogonalLoop=1;jettySize=auto;html=1;exitX=0;exitY=0;exitDx=0;exitDy=52.5;exitPerimeter=0;entryX=1;entryY=0.75;entryDx=0;entryDy=0;" parent="1" source="w8QxKclsJvKgP-PQZt70-4" target="CrHNpw65vWsv0qFxheBZ-1" edge="1">
          <mxGeometry relative="1" as="geometry" />
        </mxCell>
        <mxCell id="w8QxKclsJvKgP-PQZt70-21" style="edgeStyle=orthogonalEdgeStyle;rounded=0;orthogonalLoop=1;jettySize=auto;html=1;exitX=1;exitY=0;exitDx=0;exitDy=52.5;exitPerimeter=0;entryX=0;entryY=0.75;entryDx=0;entryDy=0;" parent="1" source="w8QxKclsJvKgP-PQZt70-4" target="w8QxKclsJvKgP-PQZt70-7" edge="1">
          <mxGeometry relative="1" as="geometry" />
        </mxCell>
        <mxCell id="w8QxKclsJvKgP-PQZt70-24" value="Connects&lt;br&gt;Users" style="edgeLabel;html=1;align=center;verticalAlign=middle;resizable=0;points=[];" parent="w8QxKclsJvKgP-PQZt70-21" vertex="1" connectable="0">
          <mxGeometry x="-0.152" y="1" relative="1" as="geometry">
            <mxPoint as="offset" />
          </mxGeometry>
        </mxCell>
        <mxCell id="w8QxKclsJvKgP-PQZt70-4" value="&lt;b&gt;Server&lt;/b&gt;" style="shape=cylinder3;whiteSpace=wrap;html=1;boundedLbl=1;backgroundOutline=1;size=15;" parent="1" vertex="1">
          <mxGeometry x="390" y="330" width="60" height="80" as="geometry" />
        </mxCell>
        <mxCell id="w8QxKclsJvKgP-PQZt70-20" value="Uploads&lt;br&gt;Data" style="edgeStyle=orthogonalEdgeStyle;rounded=0;orthogonalLoop=1;jettySize=auto;html=1;exitX=0;exitY=0.25;exitDx=0;exitDy=0;entryX=1;entryY=0;entryDx=0;entryDy=27.5;entryPerimeter=0;" parent="1" source="w8QxKclsJvKgP-PQZt70-7" target="w8QxKclsJvKgP-PQZt70-4" edge="1">
          <mxGeometry relative="1" as="geometry" />
        </mxCell>
        <mxCell id="w8QxKclsJvKgP-PQZt70-23" value="Notifies" style="edgeStyle=orthogonalEdgeStyle;rounded=0;orthogonalLoop=1;jettySize=auto;html=1;exitX=1;exitY=0.75;exitDx=0;exitDy=0;entryX=0;entryY=0.75;entryDx=0;entryDy=0;" parent="1" source="w8QxKclsJvKgP-PQZt70-7" target="w8QxKclsJvKgP-PQZt70-9" edge="1">
          <mxGeometry relative="1" as="geometry" />
        </mxCell>
        <mxCell id="w8QxKclsJvKgP-PQZt70-7" value="Seek and Hide Mobile Application 2" style="swimlane;whiteSpace=wrap;html=1;startSize=40;" parent="1" vertex="1">
          <mxGeometry x="540" y="330" width="120" height="80" as="geometry" />
        </mxCell>
        <mxCell id="w8QxKclsJvKgP-PQZt70-22" value="Uses" style="edgeStyle=orthogonalEdgeStyle;rounded=0;orthogonalLoop=1;jettySize=auto;html=1;exitX=0;exitY=0.25;exitDx=0;exitDy=0;entryX=1;entryY=0.25;entryDx=0;entryDy=0;" parent="1" source="w8QxKclsJvKgP-PQZt70-9" target="w8QxKclsJvKgP-PQZt70-7" edge="1">
          <mxGeometry relative="1" as="geometry" />
        </mxCell>
        <mxCell id="w8QxKclsJvKgP-PQZt70-9" value="&lt;b&gt;User 2&lt;/b&gt;" style="rounded=0;whiteSpace=wrap;html=1;" parent="1" vertex="1">
          <mxGeometry x="720" y="340" width="80" height="60" as="geometry" />
        </mxCell>
        <mxCell id="1QKvaSQ_9E-9Yrn2TLgT-2" value="Key" style="swimlane;whiteSpace=wrap;html=1;startSize=20;" vertex="1" parent="1">
          <mxGeometry x="640" y="160" width="160" height="160" as="geometry" />
        </mxCell>
        <mxCell id="1QKvaSQ_9E-9Yrn2TLgT-3" value="&lt;b&gt;Arrows&lt;/b&gt;: Communication or inputs between devices/users&lt;br&gt;&lt;b&gt;Cylinder&lt;/b&gt;: Server&lt;br&gt;&lt;b&gt;Boxes&lt;/b&gt;: User&lt;br&gt;&lt;b&gt;Container with Boxes:&lt;/b&gt; Application with processes done in the application" style="whiteSpace=wrap;html=1;align=left;" vertex="1" parent="1QKvaSQ_9E-9Yrn2TLgT-2">
          <mxGeometry y="20" width="160" height="140" as="geometry" />
        </mxCell>
      </root>
    </mxGraphModel>
  </diagram>
</mxfile>
